<svg width="19" height="20" viewBox="0 0 19 20" fill="none" xmlns="http://www.w3.org/2000/svg">
<path d="M18.6451 7.41256C18.5875 7.24274 18.4813 7.09353 18.3398 6.98335C18.1984 6.87316 18.0277 6.80681 17.8489 6.79251L12.6198 6.377L10.357 1.36798C10.2849 1.20665 10.1677 1.06963 10.0195 0.973442C9.87126 0.877257 9.69837 0.826025 9.52168 0.825928C9.34498 0.825831 9.17204 0.876874 9.02371 0.972896C8.87539 1.06892 8.75802 1.20582 8.68578 1.36707L6.42296 6.377L1.19381 6.79251C1.01812 6.80642 0.850158 6.87066 0.71002 6.97754C0.569883 7.08442 0.463503 7.2294 0.403608 7.39516C0.343712 7.56091 0.332838 7.74041 0.372286 7.91218C0.411733 8.08395 0.499832 8.24072 0.626043 8.36373L4.49035 12.1308L3.12367 18.0488C3.08217 18.2279 3.09547 18.4154 3.16185 18.5869C3.22822 18.7584 3.3446 18.9059 3.49589 19.0105C3.64717 19.115 3.82638 19.1716 4.01026 19.173C4.19413 19.1744 4.37418 19.1205 4.52704 19.0183L9.52138 15.6888L14.5157 19.0183C14.672 19.1221 14.8562 19.1755 15.0437 19.1713C15.2312 19.1672 15.4129 19.1058 15.5645 18.9953C15.716 18.8848 15.8301 18.7306 15.8914 18.5533C15.9526 18.3761 15.9581 18.1843 15.9072 18.0039L14.2295 12.1336L18.3901 8.38941C18.6625 8.14359 18.7625 7.76019 18.6451 7.41256Z" fill="#F3CD03"/>
</svg>
